<?xml version="1.0" encoding="utf-8"?>
<!-- Generator: Adobe Illustrator 19.2.0, SVG Export Plug-In . SVG Version: 6.00 Build 0)  -->
<svg version="1.1" id="Capa_1" xmlns="http://www.w3.org/2000/svg" xmlns:xlink="http://www.w3.org/1999/xlink" x="0px" y="0px"
	 viewBox="0 0 489 489" style="enable-background:new 0 0 489 489;" xml:space="preserve">
<style type="text/css">
	.st0{stroke:#000000;stroke-width:7;stroke-miterlimit:10;}
</style>
<g>
	<path class="st0" d="M436.7,419.6l-27.5-309.8c-0.6-6.9-6.4-12.1-13.2-12.1h-56.6c-0.8-51.7-43-93.5-94.9-93.5S150.4,46,149.6,97.7
		H93c-6.9,0-12.6,5.2-13.2,12.1L52.3,419.6c0,0.4-0.1,0.8-0.1,1.2c0,35.3,32.3,64,72.1,64h240.4c39.8,0,72.1-28.7,72.1-64
		C436.8,420.4,436.8,420,436.7,419.6z M244.5,30.8c37.2,0,67.6,29.9,68.4,66.9H176.1C176.9,60.6,207.3,30.8,244.5,30.8z
		 M364.7,458.2H124.3c-25,0-45.2-16.5-45.6-36.9l26.3-297.1h44.4v40.3c0,7.4,5.9,13.3,13.3,13.3S176,172,176,164.6v-40.3h136.9v40.3
		c0,7.4,5.9,13.3,13.3,13.3c7.4,0,13.3-5.9,13.3-13.3v-40.3h44.4l26.4,297.1C409.9,441.7,389.5,458.2,364.7,458.2z"/>
</g>
</svg>
